# xmcd
#
# Track frame offsets:
#  150
#  4468
#  15015
#  38931
#  49134
#  63929
#  83848
#  105406
#  116943
#  129884
#  149759
#  162150
#  171007
#  180272
#  193300
#  203644
#  218259
#  231384
#  243401
#  259216
#
# Disc length: 3499 seconds
#
# Revision: 0
# Processed by: cddbd v1.5.2PL0 Copyright (c) Steve Scherf et al.
# Submitted via: AltoMP3_Maker 3.0
#
DISCID=0e0da914
DTITLE=Jim Haynes and Katelyn O'Donoghue - We Were There - The Story of Gallipoli
DYEAR=1900
DGENRE=
TTITLE0=Prologue
TTITLE1=War
TTITLE2=Recuited
TTITLE3=Farewell
TTITLE4=The Landing
TTITLE5=Diggin In
TTITLE6=The Wounded
TTITLE7=Reinforcements
TTITLE8=Counter Attack
TTITLE9=After Battle
TTITLE10=The Truce
TTITLE11=Medical Corp
TTITLE12=The Chaplains
TTITLE13=Our Sunny Southern Home
TTITLE14=Lone Pine
TTITLE15=The Nurses
TTITLE16=Frostbite
TTITLE17=Evacuation
TTITLE18=Leaving
TTITLE19=Pack Up Your Troubles
EXTD=
EXTT0=
EXTT1=
EXTT2=
EXTT3=
EXTT4=
EXTT5=
EXTT6=
EXTT7=
EXTT8=
EXTT9=
EXTT10=
EXTT11=
EXTT12=
EXTT13=
EXTT14=
EXTT15=
EXTT16=
EXTT17=
EXTT18=
EXTT19=
PLAYORDER=
